<?xml version="1.0" encoding="utf-8"?>
<!-- Generator: Adobe Illustrator 24.1.2, SVG Export Plug-In . SVG Version: 6.00 Build 0)  -->
<svg version="1.1" id="Layer_1" xmlns="http://www.w3.org/2000/svg" xmlns:xlink="http://www.w3.org/1999/xlink" x="0px" y="0px"
	 viewBox="0 0 218 76" style="enable-background:new 0 0 218 76;" xml:space="preserve">
<path d="M149.04,44.47l0.38-1.32c5.02-17.59,11.55-23.08,14.2-23.08c3.12,0,0.19,8.9-3.5,21.01c-3.79,12.2-6.15,17.97-9.75,17.97
	C147.91,59.05,146.59,53.09,149.04,44.47 M202.39,19.69c5.49,0,3.31,9.27-0.38,21.39c-3.79,12.2-4.92,18.44-9.28,18.44
	c-5.49,0-2.84-9.28,0.85-21.38C197.38,25.94,198.04,19.69,202.39,19.69 M147.06,43.72c-3.11,10.13-1.6,17.87,3.88,17.87
	c9.37,0,20.62-8.22,24.31-19.76c4.07-12.39-0.94-24.21-10.87-24.21c-4.92,0-11.64,7.56-16.94,24.87L147.06,43.72z M203.24,17.62
	c-10.79,0-21.09,8.22-24.78,19.76c-4.07,12.38,2.65,24.2,13.42,24.2c10.79,0,21.09-8.22,24.78-19.76
	C220.73,29.44,214.02,17.62,203.24,17.62 M3.87,21.49c1.61-0.09,3.59-0.19,5.86-0.19L0.95,47.03c-2.74,8.14,1.89,14.56,7.75,14.56
	c6.71,0,13.34-8.69,16.46-17.12l-1.7-1.13c-3.22,8.61-7.76,14.2-10.22,14.2c-1.99,0-0.95-3.69,1.33-10.22l8.99-26.01
	c2.18,0,4.35,0,6.53,0.09C27.43,32.47,33,44,43.12,44c4.45,0,9.46-4.06,13.72-10.3l2.93-4.26c3.88-5.68,4.16-7.38,5.87-7.38
	c1.99,0,0.85,3.22-1.33,9.84l-9.18,28.27c5.49-0.85,10.88-0.85,16.55,0c10.31-32.44,15.13-38.21,17.69-38.21
	c1.99,0,1.14,3.22-1.04,9.84l-9.18,28.37c5.49-0.85,10.89-0.85,16.56,0c10.49-32.44,15.13-38.21,17.69-38.21
	c1.99,0,1.51,3.41-1.04,9.84l-5.96,15.13c-2.75,6.91,2.65,14.56,7.75,14.56c5.67,0,8.61-6.42,12.11-14.66l7.48-17.49
	c2.37-5.58,3.31-7.38,4.54-7.38c1.23,0,0.57,3.22-1.61,9.84l-14.29,44.16c5.2-0.95,9.37-0.95,14,0l13.89-43.88
	c2.18-6.91-1.23-14.46-7.75-14.46c-4.73,0-7.47,3.87-10.31,10.49l-7.66,17.78c-3.5,8.05-5.49,12.31-7.38,12.31
	c-1.98,0,0.09-4.45,2.74-10.98l6.15-15.13c2.74-6.72-1.23-14.46-7.28-14.46c-8.8,0-13.81,8.6-24.49,40.67h-0.66l7.84-24.88
	c3.12-9.84-2.17-15.79-7.28-15.79c-7.95,0-13.53,8.03-23.93,40.67h-0.66l7.84-24.88c3.12-9.84-1.98-15.79-7.94-15.79
	c-5.11,0-6.81,3.77-10.88,9.83l-3.03,4.45c-4.64,6.81-8.33,9.56-10.98,9.56c-6.62,0-3.69-9.27,0-21.39
	C48.51,7.4,50.31,2.29,54.19,2.29c3.59,0,2.74,4.26,1.04,9.94c-1.23,4.07-4.73,7.38-9.28,7.38l-0.66,1.97
	c10.98,0,19.1-3.39,20.9-9.74c1.8-6.34-4.35-11.82-11.53-11.82c-8.9,0-19.77,6.99-23.93,19.1c-2.08,0-4.35,0.09-6.53,0.09
	l4.73-13.72h-1.51c-3.79,4.73-9.75,6.91-14.67,6.91l-2.36,6.81c-2.46-0.09-4.72-0.09-6.52-0.19V21.49z"/>
</svg>
