<?xml version="1.0" encoding="utf-8"?>
<!-- Generator: Adobe Illustrator 24.3.0, SVG Export Plug-In . SVG Version: 6.00 Build 0)  -->
<svg version="1.1" id="Layer_1" xmlns="http://www.w3.org/2000/svg" xmlns:xlink="http://www.w3.org/1999/xlink" x="0px" y="0px"
	 viewBox="0 0 22 22" style="enable-background:new 0 0 22 22;" xml:space="preserve">
<style type="text/css">
	.st0{clip-path:url(#SVGID_2_);fill:#BCBEC0;}
	.st1{clip-path:url(#SVGID_4_);fill:#3F89C9;}
	.st2{clip-path:url(#SVGID_6_);fill:#3F89C9;}
	.st3{clip-path:url(#SVGID_8_);fill:#3F89C9;}
	.st4{clip-path:url(#SVGID_10_);fill:#BCBEC0;}
	.st5{clip-path:url(#SVGID_12_);fill:#BCBEC0;}
</style>
<g>
	<defs>
		<rect id="SVGID_11_" x="-0.1" y="0.6" width="22.2" height="20.7"/>
	</defs>
	<clipPath id="SVGID_2_">
		<use xlink:href="#SVGID_11_"  style="overflow:visible;"/>
	</clipPath>
	<path class="st0" d="M-0.1,19.2c0.5-0.4,0.9-0.7,1.3-1.1C2.3,17.2,3,16,3.3,14.6c0.3-1.4,0.4-2.8,0.4-4.2c0-1.1,0.1-2.2,0.3-3.3
		c0.5-2,1.6-3.6,3.5-4.5c0.7-0.3,1.4-0.5,2.1-0.7c0.1-0.8,0.6-1.3,1.5-1.3c0.8,0,1.3,0.5,1.4,1.3c0,0,0,0,0,0c0,0,0.1,0,0.1,0
		c2.6,0.5,4.3,1.9,5.2,4.4c0.4,1.2,0.5,2.5,0.5,3.7c0,1.3,0.1,2.6,0.3,3.9c0.3,1.7,1,3.1,2.4,4.2c0.3,0.3,0.6,0.5,0.9,0.8
		c0.1,0,0.1,0.1,0.2,0.2h-8.2c-0.2,1-1.4,2-2.7,2.2c-1.5,0.1-2.8-0.8-3.2-2.2H-0.1z"/>
</g>
</svg>
