<?xml version="1.0" encoding="utf-8"?>
<!-- Generator: Adobe Illustrator 24.3.0, SVG Export Plug-In . SVG Version: 6.00 Build 0)  -->
<svg version="1.1" id="Layer_1" xmlns="http://www.w3.org/2000/svg" xmlns:xlink="http://www.w3.org/1999/xlink" x="0px" y="0px"
	 viewBox="0 0 12 12" style="enable-background:new 0 0 12 12;" xml:space="preserve">
<style type="text/css">
	.st0{clip-path:url(#SVGID_2_);fill:#BCBEC0;}
	.st1{clip-path:url(#SVGID_4_);fill:#3F89C9;}
	.st2{clip-path:url(#SVGID_6_);fill:#3F89C9;}
	.st3{clip-path:url(#SVGID_8_);fill:#3F89C9;}
	.st4{clip-path:url(#SVGID_10_);fill:#BCBEC0;}
	.st5{clip-path:url(#SVGID_12_);fill:#BCBEC0;}
</style>
<g>
	<defs>
		<rect id="SVGID_1_" x="0.4" y="0.4" width="11.2" height="11.2"/>
	</defs>
	<clipPath id="SVGID_2_">
		<use xlink:href="#SVGID_1_"  style="overflow:visible;"/>
	</clipPath>
	<path class="st0" d="M3.8,6C2.8,5,1.9,4.1,1,3.2c-0.6-0.6-0.7-1.4-0.3-2c0.5-0.9,1.8-1.1,2.5-0.3C4.1,1.8,5,2.7,5.9,3.6
		c0,0,0.1,0.1,0.2,0.2C6.3,3.5,6.5,3.2,6.8,3c0.7-0.7,1.4-1.4,2.1-2.1c0.6-0.6,1.4-0.7,2-0.3c0.6,0.4,0.9,1.2,0.6,1.9
		C11.4,2.8,11.2,3,11,3.2C10.1,4.1,9.2,5.1,8.2,6C8.5,6.3,8.7,6.5,9,6.8c0.7,0.7,1.4,1.4,2.1,2.1c0.7,0.7,0.7,1.6,0.1,2.3
		c-0.6,0.6-1.6,0.6-2.3,0c-0.7-0.7-1.3-1.3-2-2C6.6,8.8,6.3,8.5,6,8.2C5.6,8.6,5.2,9,4.8,9.4c-0.6,0.6-1.1,1.1-1.7,1.7
		c-0.5,0.5-1.4,0.6-2,0.2c-0.6-0.4-0.9-1.2-0.6-1.9C0.6,9.2,0.8,9,1,8.8C1.9,7.9,2.8,7,3.8,6C3.7,6.1,3.7,6,3.8,6"/>
</g>
</svg>
