<?xml version="1.0" encoding="utf-8"?>
<!-- Generator: Adobe Illustrator 24.1.2, SVG Export Plug-In . SVG Version: 6.00 Build 0)  -->
<svg version="1.1" id="Layer_1" xmlns="http://www.w3.org/2000/svg" xmlns:xlink="http://www.w3.org/1999/xlink" x="0px" y="0px"
	 viewBox="0 0 15 15" style="enable-background:new 0 0 15 15;" xml:space="preserve">
<style type="text/css">
	.st0{fill:#3F89C9;}
</style>
<path class="st0" d="M12,0.1H3C1.4,0.1,0.1,1.4,0.1,3v3v1.1V12c0,1.6,1.3,2.8,2.8,2.8H12c1.6,0,2.9-1.3,2.9-2.9V7.1V6V3
	C14.9,1.4,13.6,0.1,12,0.1z M12.9,1.8h0.3v0.3v2.2l-2.5,0l0-2.5L12.9,1.8z M5.4,6c0.5-0.7,1.2-1.1,2.1-1.1S9.1,5.3,9.6,6
	c0.1,0.1,0.1,0.2,0.2,0.2C10,6.6,10.1,7,10.1,7.5c0,1.4-1.2,2.6-2.6,2.6S4.9,8.9,4.9,7.5C4.9,7,5,6.6,5.2,6.2C5.3,6.2,5.3,6.1,5.4,6
	z M13.4,12c0,0.8-0.6,1.4-1.4,1.4H3c-0.8,0-1.4-0.6-1.4-1.4V6.8V6h2.2C3.7,6.1,3.7,6.3,3.6,6.4C3.5,6.8,3.5,7.1,3.5,7.5
	c0,2.2,1.8,4,4,4s4-1.8,4-4c0-0.4-0.1-0.8-0.2-1.1c0-0.1-0.1-0.3-0.1-0.4h2.2v0.8L13.4,12L13.4,12z"/>
</svg>
