<?xml version="1.0" encoding="utf-8"?>
<!-- Generator: Adobe Illustrator 24.1.2, SVG Export Plug-In . SVG Version: 6.00 Build 0)  -->
<svg version="1.1" id="Layer_1" xmlns="http://www.w3.org/2000/svg" xmlns:xlink="http://www.w3.org/1999/xlink" x="0px" y="0px"
	 viewBox="0 0 20 20" style="enable-background:new 0 0 20 20;" xml:space="preserve">
<style type="text/css">
	.st0{fill:#FFFFFF;}
</style>
<g id="XMLID_2059_">
	<path id="XMLID_2065_" class="st0" d="M12.5,12.9h6.2C19,12,19.2,11,19.2,10c0-2.1-0.7-4-1.8-5.5L12.5,12.9z"/>
	<path id="XMLID_2064_" class="st0" d="M13.8,9.3l3.1-5.4C15.2,2,12.7,0.8,10,0.8c-0.4,0-0.7,0-1.1,0.1L13.8,9.3z"/>
	<path id="XMLID_2063_" class="st0" d="M7.5,7.1H1.3C1,8,0.8,9,0.8,10c0,2.1,0.7,4,1.8,5.5L7.5,7.1z"/>
	<path id="XMLID_2062_" class="st0" d="M11.9,13.6H8.7l3.1,5.4c3-0.6,5.5-2.6,6.6-5.4H11.9z"/>
	<path id="XMLID_2061_" class="st0" d="M11.3,6.4L8.2,1c-3,0.6-5.5,2.6-6.6,5.4H11.3z"/>
	<path id="XMLID_2060_" class="st0" d="M6.2,10.7l-3.1,5.4c1.7,1.9,4.2,3.1,6.9,3.1c0.4,0,0.7,0,1.1-0.1L6.2,10.7z"/>
</g>
</svg>
