<?xml version="1.0" encoding="utf-8"?>
<!-- Generator: Adobe Illustrator 24.1.2, SVG Export Plug-In . SVG Version: 6.00 Build 0)  -->
<svg version="1.1" id="Layer_1" xmlns="http://www.w3.org/2000/svg" xmlns:xlink="http://www.w3.org/1999/xlink" x="0px" y="0px"
	 viewBox="0 0 20 20" style="enable-background:new 0 0 20 20;" xml:space="preserve">
<style type="text/css">
	.st0{fill:#FFFFFF;}
</style>
<g>
	<path class="st0" d="M6.9,14.7c0-0.4,0-0.7,0-1c0-0.1-0.1-0.3-0.2-0.4c-1.7-1.2-2.7-2.8-2.9-4.9C3.5,5.2,6.1,2.1,9.3,1.8
		c3.4-0.3,6.3,2,6.9,5c0.5,2.5-0.3,4.6-2.3,6.2c-0.7,0.5-0.7,1-0.7,1.7c2.5-0.7,4.6-4.4,4.2-7.5c-0.5-3.6-3.5-6.5-7-6.6
		c-3.7-0.1-7,2.4-7.6,6C2,10.6,4.4,13.6,6.9,14.7"/>
	<path class="st0" d="M11.9,15.5c0-0.7,0-1.3,0-2c0-1.1-0.8-1.9-1.9-1.9c-1,0-1.8,0.8-1.8,1.9c0,1.3,0,2.6,0,3.9
		c0,1.1,0.8,1.9,1.9,1.9c1.1,0,1.8-0.8,1.8-1.9C11.9,16.8,11.9,16.1,11.9,15.5"/>
	<path class="st0" d="M12.1,11.1c0.2,0.3,0.5,0.6,0.7,0.8c1.7-1.1,2.4-3.3,1.8-5.3c-0.6-2-2.5-3.4-4.6-3.4C8,3.2,6.1,4.6,5.4,6.5
		c-0.7,2,0,4.1,1.8,5.4c0.2-0.3,0.4-0.5,0.7-0.8c-1.1-0.8-1.7-1.9-1.6-3.3c0.1-1,0.5-1.8,1.1-2.4C8.9,4,11.2,4,12.7,5.5
		C13.9,6.7,14.4,9.3,12.1,11.1"/>
	<path class="st0" d="M10,10.2c1.2,0,2.2-1,2.2-2.2c0-1.2-1-2.2-2.2-2.2c-1.2,0-2.2,1-2.2,2.2C7.8,9.3,8.8,10.2,10,10.2"/>
</g>
</svg>
