<?xml version="1.0" encoding="utf-8"?>
<!-- Generator: Adobe Illustrator 24.1.2, SVG Export Plug-In . SVG Version: 6.00 Build 0)  -->
<svg version="1.1" id="Layer_1" xmlns="http://www.w3.org/2000/svg" xmlns:xlink="http://www.w3.org/1999/xlink" x="0px" y="0px"
	 viewBox="0 0 20 20" style="enable-background:new 0 0 20 20;" xml:space="preserve">
<style type="text/css">
	.st0{clip-path:url(#SVGID_2_);fill:#BCBEC0;}
</style>
<g>
	<defs>
		<rect id="SVGID_1_" x="2" width="16" height="20"/>
	</defs>
	<clipPath id="SVGID_2_">
		<use xlink:href="#SVGID_1_"  style="overflow:visible;"/>
	</clipPath>
	<path class="st0" d="M17.9,20c-2.3-1.3-4.5-2.5-6.7-3.7c-0.9-0.5-1.5-0.6-2.4,0c-2.2,1.3-4.4,2.5-6.7,3.8C2,19.6,2,19.3,2,19
		C2,13.2,2,7.5,2,1.7C2,0.2,2.1,0,3.7,0c4.3,0,8.6,0,12.8,0c1,0,1.5,0.4,1.5,1.4c0,6,0,11.9,0,17.9C18,19.5,17.9,19.7,17.9,20"/>
</g>
</svg>
