<?xml version="1.0" encoding="utf-8"?>
<!-- Generator: Adobe Illustrator 24.1.2, SVG Export Plug-In . SVG Version: 6.00 Build 0)  -->
<svg version="1.1" id="Layer_1" xmlns="http://www.w3.org/2000/svg" xmlns:xlink="http://www.w3.org/1999/xlink" x="0px" y="0px"
	 viewBox="0 0 20 20" style="enable-background:new 0 0 20 20;" xml:space="preserve">
<style type="text/css">
	.st0{clip-path:url(#SVGID_2_);fill:#BCBEC0;}
</style>
<g>
	<defs>
		<rect id="SVGID_1_" x="1.9" y="0.5" width="16.1" height="19.1"/>
	</defs>
	<clipPath id="SVGID_2_">
		<use xlink:href="#SVGID_1_"  style="overflow:visible;"/>
	</clipPath>
	<path class="st0" d="M14.9,13.2c-0.6,0-1.3,0.2-1.8,0.6l-4.8-3.2c0.1-0.4,0.1-0.8,0-1.2l4.8-3.2c1.5,1,3.4,0.6,4.4-0.8
		C18.5,4,18.1,2,16.7,1c-1.5-1-3.4-0.6-4.4,0.8c-0.4,0.5-0.6,1.2-0.6,1.8c0,0.2,0,0.4,0.1,0.6L6.9,7.4c-1.5-1-3.4-0.6-4.4,0.8
		c-1,1.5-0.6,3.4,0.8,4.4c1.1,0.7,2.5,0.7,3.6,0l4.8,3.2c0,0.2-0.1,0.4-0.1,0.6c0,1.8,1.4,3.2,3.2,3.2s3.2-1.4,3.2-3.2
		C18.1,14.6,16.6,13.2,14.9,13.2"/>
</g>
</svg>
