<?xml version="1.0" encoding="utf-8"?>
<!-- Generator: Adobe Illustrator 24.1.2, SVG Export Plug-In . SVG Version: 6.00 Build 0)  -->
<svg version="1.1" id="Layer_1" xmlns="http://www.w3.org/2000/svg" xmlns:xlink="http://www.w3.org/1999/xlink" x="0px" y="0px"
	 viewBox="0 0 15 15" style="enable-background:new 0 0 15 15;" xml:space="preserve">
<style type="text/css">
	.st0{fill:#3F89C9;}
</style>
<g>
	<path class="st0" d="M11.4,12.4c-0.1,0-0.2,0-0.4-0.1c-4.1-2.4-8.9-1-9-1c-0.4,0.1-0.7-0.1-0.9-0.4s0.1-0.7,0.4-0.9
		C2,9.9,7.2,8.4,11.8,11.2c0.3,0.2,0.4,0.6,0.2,0.9C11.9,12.3,11.7,12.4,11.4,12.4z"/>
</g>
<g>
	<path class="st0" d="M12.6,9.6c-0.1,0-0.3,0-0.4-0.1C7.1,6.6,1.9,8.3,1.9,8.3C1.5,8.5,1,8.2,0.9,7.8c-0.1-0.4,0.1-0.9,0.5-1
		c0.2-0.1,5.9-2,11.7,1.3c0.4,0.2,0.5,0.7,0.3,1.1C13.2,9.5,12.9,9.6,12.6,9.6z"/>
</g>
<g>
	<path class="st0" d="M13.9,6.5c-0.2,0-0.3,0-0.5-0.1c-5.9-3.1-12-1.2-12-1.2C0.9,5.3,0.3,5,0.2,4.5C0,4,0.3,3.4,0.8,3.2
		c0.3-0.1,6.9-2.1,13.5,1.4c0.5,0.2,0.7,0.8,0.4,1.3C14.6,6.3,14.2,6.5,13.9,6.5z"/>
</g>
</svg>
