<?xml version="1.0" encoding="utf-8"?>
<!-- Generator: Adobe Illustrator 24.1.2, SVG Export Plug-In . SVG Version: 6.00 Build 0)  -->
<svg version="1.1" id="Layer_1" xmlns="http://www.w3.org/2000/svg" xmlns:xlink="http://www.w3.org/1999/xlink" x="0px" y="0px"
	 viewBox="0 0 15 15" style="enable-background:new 0 0 15 15;" xml:space="preserve">
<style type="text/css">
	.st0{fill:#BCBEC0;}
	.st1{fill:#FFFFFF;}
	.st2{clip-path:url(#SVGID_2_);fill:#FFC628;}
	.st3{clip-path:url(#SVGID_2_);fill:none;stroke:#FFC628;stroke-width:0.361;stroke-miterlimit:10;}
	.st4{clip-path:url(#SVGID_4_);fill:#FFC628;}
	.st5{clip-path:url(#SVGID_4_);fill:none;stroke:#FFC628;stroke-width:0.506;stroke-miterlimit:10;}
	.st6{clip-path:url(#SVGID_6_);fill:#3F89C9;}
</style>
<g>
	<path class="st0" d="M11.45,12.43c-0.12,0-0.24-0.03-0.35-0.1c-4.08-2.45-8.91-1.03-8.96-1.02c-0.36,0.11-0.74-0.09-0.85-0.45
		c-0.11-0.36,0.09-0.74,0.45-0.85c0.22-0.07,5.45-1.62,10.06,1.16c0.32,0.19,0.43,0.61,0.23,0.93
		C11.9,12.31,11.68,12.43,11.45,12.43z"/>
</g>
<g>
	<path class="st0" d="M12.62,9.64c-0.14,0-0.27-0.03-0.4-0.11C7.1,6.58,1.94,8.3,1.89,8.32c-0.42,0.14-0.88-0.08-1.02-0.5
		C0.72,7.4,0.95,6.94,1.37,6.79C1.6,6.71,7.27,4.83,13.02,8.13c0.38,0.22,0.52,0.71,0.3,1.1C13.17,9.49,12.9,9.64,12.62,9.64z"/>
</g>
<g>
	<path class="st0" d="M13.89,6.47c-0.16,0-0.31-0.04-0.46-0.11C7.53,3.25,1.46,5.11,1.4,5.13C0.88,5.29,0.33,5,0.16,4.48
		C0,3.96,0.29,3.41,0.81,3.24C1.09,3.15,7.73,1.12,14.35,4.6c0.48,0.25,0.67,0.85,0.42,1.34C14.59,6.27,14.25,6.47,13.89,6.47z"/>
</g>
</svg>
