<?xml version="1.0" encoding="utf-8"?>
<!-- Generator: Adobe Illustrator 24.1.2, SVG Export Plug-In . SVG Version: 6.00 Build 0)  -->
<svg version="1.1" id="Layer_1" xmlns="http://www.w3.org/2000/svg" xmlns:xlink="http://www.w3.org/1999/xlink" x="0px" y="0px"
	 viewBox="0 0 15 15" style="enable-background:new 0 0 15 15;" xml:space="preserve">
<style type="text/css">
	.st0{fill:#BCBEC0;}
	.st1{fill:#FFFFFF;}
	.st2{clip-path:url(#SVGID_2_);fill:#FFC628;}
	.st3{clip-path:url(#SVGID_2_);fill:none;stroke:#FFC628;stroke-width:0.361;stroke-miterlimit:10;}
	.st4{clip-path:url(#SVGID_4_);fill:#FFC628;}
	.st5{clip-path:url(#SVGID_4_);fill:none;stroke:#FFC628;stroke-width:0.506;stroke-miterlimit:10;}
	.st6{clip-path:url(#SVGID_6_);fill:#3F89C9;}
</style>
<path class="st0" d="M12.03,0.12H2.97c-1.57,0-2.85,1.28-2.85,2.85v3.02v1.11v4.94c0,1.57,1.28,2.85,2.85,2.85h9.06
	c1.57,0,2.85-1.28,2.85-2.85V7.1V5.98V2.97C14.88,1.4,13.6,0.12,12.03,0.12z M12.85,1.82l0.33,0v0.33v2.18l-2.49,0.01l-0.01-2.5
	L12.85,1.82z M5.39,5.98C5.87,5.33,6.63,4.9,7.5,4.9c0.87,0,1.63,0.43,2.11,1.08c0.06,0.08,0.11,0.16,0.16,0.25
	C9.98,6.61,10.1,7.04,10.1,7.5c0,1.43-1.17,2.6-2.6,2.6c-1.43,0-2.6-1.17-2.6-2.6c0-0.46,0.12-0.89,0.34-1.27
	C5.28,6.15,5.34,6.06,5.39,5.98z M13.44,12.03c0,0.78-0.63,1.42-1.42,1.42H2.97c-0.78,0-1.41-0.63-1.41-1.42V6.75V5.98h2.2
	C3.7,6.12,3.66,6.26,3.62,6.4c-0.1,0.35-0.15,0.72-0.15,1.1c0,2.23,1.81,4.04,4.04,4.04c2.23,0,4.04-1.81,4.04-4.04
	c0-0.38-0.06-0.75-0.16-1.1c-0.04-0.14-0.09-0.28-0.14-0.42h2.2v0.77V12.03z"/>
</svg>
