<?xml version="1.0" encoding="utf-8"?>
<!-- Generator: Adobe Illustrator 24.1.2, SVG Export Plug-In . SVG Version: 6.00 Build 0)  -->
<svg version="1.1" id="Layer_1" xmlns="http://www.w3.org/2000/svg" xmlns:xlink="http://www.w3.org/1999/xlink" x="0px" y="0px"
	 viewBox="0 0 15 15" style="enable-background:new 0 0 15 15;" xml:space="preserve">
<style type="text/css">
	.st0{fill:#BCBEC0;}
	.st1{fill:#FFFFFF;}
	.st2{clip-path:url(#SVGID_2_);fill:#FFC628;}
	.st3{clip-path:url(#SVGID_2_);fill:none;stroke:#FFC628;stroke-width:0.361;stroke-miterlimit:10;}
	.st4{clip-path:url(#SVGID_4_);fill:#FFC628;}
	.st5{clip-path:url(#SVGID_4_);fill:none;stroke:#FFC628;stroke-width:0.506;stroke-miterlimit:10;}
	.st6{clip-path:url(#SVGID_6_);fill:#3F89C9;}
</style>
<path id="XMLID_17_" class="st0" d="M14.81,3.04c-0.54,0.24-1.12,0.39-1.72,0.46c0.62-0.37,1.09-0.94,1.32-1.63
	c-0.58,0.34-1.22,0.58-1.91,0.72c-0.55-0.57-1.33-0.93-2.19-0.93c-1.66,0-3,1.32-3,2.95c0,0.23,0.03,0.46,0.08,0.67
	c-2.49-0.12-4.7-1.3-6.18-3.09C0.95,2.63,0.8,3.13,0.8,3.68c0,1.02,0.53,1.93,1.33,2.46C1.64,6.12,1.18,5.99,0.78,5.76
	c0,0.01,0,0.02,0,0.04c0,0.38,0.07,0.74,0.21,1.07C1.35,7.8,2.17,8.5,3.18,8.7C2.93,8.76,2.67,8.8,2.39,8.8
	c-0.19,0-0.38-0.02-0.56-0.05c0.38,1.17,1.49,2.03,2.8,2.05c-1.03,0.79-2.32,1.26-3.73,1.26c-0.24,0-0.48-0.01-0.72-0.04
	c1.33,0.84,2.91,1.33,4.6,1.33c4.69,0,7.57-3.25,8.33-6.62c0.13-0.6,0.2-1.2,0.2-1.78c0-0.13,0-0.26-0.01-0.38
	C13.9,4.15,14.41,3.63,14.81,3.04z"/>
</svg>
