<?xml version="1.0" encoding="utf-8"?>
<!-- Generator: Adobe Illustrator 24.1.2, SVG Export Plug-In . SVG Version: 6.00 Build 0)  -->
<svg version="1.1" id="Layer_1" xmlns="http://www.w3.org/2000/svg" xmlns:xlink="http://www.w3.org/1999/xlink" x="0px" y="0px"
	 viewBox="0 0 20 20" style="enable-background:new 0 0 20 20;" xml:space="preserve">
<style type="text/css">
	.st0{fill:#FFFFFF;}
</style>
<g>
	<path class="st0" d="M14.4,5H0.9C0.7,5,0.4,5.2,0.4,5.5v9c0,0.3,0.2,0.5,0.5,0.5h13.5c0.3,0,0.5-0.2,0.5-0.5v-9
		C14.9,5.2,14.7,5,14.4,5z M13.9,14H1.5V6h12.4V14z"/>
	<path class="st0" d="M19.2,5.7c-0.2-0.1-0.4,0-0.6,0.1l-3.4,3.8c-0.2,0.2-0.2,0.5,0,0.7l3.4,3.8c0.1,0.1,0.2,0.2,0.4,0.2
		c0.1,0,0.1,0,0.2,0c0.2-0.1,0.3-0.3,0.3-0.5V6.2C19.6,6,19.4,5.8,19.2,5.7z M18.5,12.4L16.4,10l2.2-2.4V12.4z"/>
</g>
</svg>
