<?xml version="1.0" encoding="utf-8"?>
<!-- Generator: Adobe Illustrator 24.1.2, SVG Export Plug-In . SVG Version: 6.00 Build 0)  -->
<svg version="1.1" id="Layer_1" xmlns="http://www.w3.org/2000/svg" xmlns:xlink="http://www.w3.org/1999/xlink" x="0px" y="0px"
	 viewBox="0 0 15 15" style="enable-background:new 0 0 15 15;" xml:space="preserve">
<style type="text/css">
	.st0{fill:#BCBEC0;}
	.st1{fill:#FFFFFF;}
	.st2{clip-path:url(#SVGID_2_);fill:#FFC628;}
	.st3{clip-path:url(#SVGID_2_);fill:none;stroke:#FFC628;stroke-width:0.361;stroke-miterlimit:10;}
	.st4{clip-path:url(#SVGID_4_);fill:#FFC628;}
	.st5{clip-path:url(#SVGID_4_);fill:none;stroke:#FFC628;stroke-width:0.506;stroke-miterlimit:10;}
	.st6{clip-path:url(#SVGID_6_);fill:#3F89C9;}
</style>
<path class="st0" d="M2.73,7.19C3.29,8.22,4.2,9.01,5.29,9.43c1.02,0.38,2.13,0.41,3.16,0.09l2.69,5c0.21,0.39,0.69,0.53,1.08,0.33
	l0.21-0.11c0.39-0.21,0.53-0.69,0.32-1.08l-2.69-5.01c0.83-0.68,1.4-1.62,1.64-2.68c0.25-1.13,0.09-2.32-0.46-3.34
	C9.97,0.27,7.04-0.62,4.7,0.64S1.47,4.84,2.73,7.19z M5.23,1.63c1.8-0.97,4.05-0.29,5.02,1.52c0.97,1.8,0.29,4.06-1.5,5.02
	c-1.8,0.97-4.05,0.29-5.02-1.52C2.76,4.85,3.43,2.6,5.23,1.63z"/>
</svg>
