<?xml version="1.0" encoding="utf-8"?>
<!-- Generator: Adobe Illustrator 24.3.0, SVG Export Plug-In . SVG Version: 6.00 Build 0)  -->
<svg version="1.1" id="Layer_1" xmlns="http://www.w3.org/2000/svg" xmlns:xlink="http://www.w3.org/1999/xlink" x="0px" y="0px"
	 viewBox="0 0 15 15" style="enable-background:new 0 0 15 15;" xml:space="preserve">
<style type="text/css">
	.st0{clip-path:url(#SVGID_2_);fill:#BCBEC0;}
	.st1{clip-path:url(#SVGID_4_);fill:#3F89C9;}
	.st2{clip-path:url(#SVGID_6_);fill:#3F89C9;}
	.st3{clip-path:url(#SVGID_8_);fill:#3F89C9;}
	.st4{clip-path:url(#SVGID_10_);fill:#BCBEC0;}
	.st5{clip-path:url(#SVGID_12_);fill:#BCBEC0;}
</style>
<g>
	<defs>
		<rect id="SVGID_5_" x="1.3" y="1.3" width="12.4" height="12.5"/>
	</defs>
	<clipPath id="SVGID_2_">
		<use xlink:href="#SVGID_5_"  style="overflow:visible;"/>
	</clipPath>
	<path style="clip-path:url(#SVGID_2_);fill:#3F89C9;" d="M10,5.2c0,0.9,0,1.9,0,2.8c0,0.2,0,0.3-0.2,0.3c-0.1,0-0.1,0.1-0.2,0.1
		C9.2,9,8.7,9.5,8.2,10c-0.5,0.5-1,1-1.3,1.7c-0.2,0.5-0.3,1.1-0.5,1.7c-0.1,0.2-0.1,0.3-0.3,0.4c-0.2,0.1-0.4,0-0.6-0.2
		c-0.4-0.4-0.4-0.9-0.5-1.4c0-0.9,0.2-1.8,0.4-2.7C5.6,9,5.6,9,5.1,9c-1,0-1.9-0.2-2.9-0.5C1.7,8.2,1.4,7.8,1.5,7.2
		c0-0.3,0-0.7-0.1-1c-0.1-0.3-0.1-0.7,0-1C1.5,5,1.5,4.7,1.5,4.5c0-0.3,0-0.7,0.1-1c0.1-0.3,0.1-0.6,0.1-0.9c0-0.3,0.1-0.5,0.3-0.7
		c0.3-0.2,0.6-0.3,0.9-0.4C5.2,1.1,7.4,1.1,9.6,2C10,2.2,10,2.2,10,2.6C10,3.5,10,4.4,10,5.2"/>
	<path style="clip-path:url(#SVGID_2_);fill:#3F89C9;" d="M13.7,5.2c0,1,0,2,0,3c0,0.4-0.1,0.6-0.6,0.6c-1.4,0,0.1,0-1.3,0
		c-0.4,0-0.6-0.2-0.6-0.6c0-1.9,0-3.9,0-5.8c0-0.4,0.3-0.6,0.6-0.6c1.4,0-0.1,0,1.3,0c0.4,0,0.5,0.1,0.5,0.6
		C13.7,3.2,13.7,4.2,13.7,5.2"/>
</g>
</svg>
