<?xml version="1.0" encoding="utf-8"?>
<!-- Generator: Adobe Illustrator 24.1.2, SVG Export Plug-In . SVG Version: 6.00 Build 0)  -->
<svg version="1.1" id="Layer_1" xmlns="http://www.w3.org/2000/svg" xmlns:xlink="http://www.w3.org/1999/xlink" x="0px" y="0px"
	 viewBox="0 0 15 15" style="enable-background:new 0 0 15 15;" xml:space="preserve">
<style type="text/css">
	.st0{fill:#3F89C9;}
</style>
<path id="XMLID_17_" class="st0" d="M14.8,3c-0.5,0.2-1.1,0.4-1.7,0.5c0.6-0.4,1.1-0.9,1.3-1.6c-0.6,0.3-1.2,0.6-1.9,0.7
	c-0.6-0.6-1.3-0.9-2.2-0.9c-1.7,0-3,1.3-3,3c0,0.2,0,0.5,0.1,0.7C4.9,5.2,2.7,4,1.2,2.2C0.9,2.6,0.8,3.1,0.8,3.7
	c0,1,0.5,1.9,1.3,2.5c-0.5,0-1-0.2-1.4-0.4c0,0,0,0,0,0c0,0.4,0.1,0.7,0.2,1.1c0.4,0.9,1.2,1.6,2.2,1.8C2.9,8.8,2.7,8.8,2.4,8.8
	c-0.2,0-0.4,0-0.6-0.1c0.4,1.2,1.5,2,2.8,2.1c-1,0.8-2.3,1.3-3.7,1.3c-0.2,0-0.5,0-0.7,0c1.3,0.8,2.9,1.3,4.6,1.3
	c4.7,0,7.6-3.2,8.3-6.6c0.1-0.6,0.2-1.2,0.2-1.8c0-0.1,0-0.3,0-0.4C13.9,4.2,14.4,3.6,14.8,3z"/>
</svg>
