<?xml version="1.0" encoding="utf-8"?>
<!-- Generator: Adobe Illustrator 25.2.0, SVG Export Plug-In . SVG Version: 6.00 Build 0)  -->
<svg version="1.1" id="Layer_1" xmlns="http://www.w3.org/2000/svg" xmlns:xlink="http://www.w3.org/1999/xlink" x="0px" y="0px"
	 viewBox="0 0 216 216" style="enable-background:new 0 0 216 216;" xml:space="preserve">
<style type="text/css">
	.st0{fill:#BCBEC0;}
</style>
<g>
	<path class="st0" d="M169.4,149.7c-2.4-9.9-11.8-19.5-19.7-21.1c-4.3-0.8-12.2-5.3-18.6-9.1c0.7,9.3,5,45.2-3.5,66.1
		c23.7-1.7,41.4-6.3,44.3-12C171.4,165.3,170.7,155,169.4,149.7z"/>
	<path class="st0" d="M85.2,119.3c-6.5,3.9-14.6,8.5-18.9,9.3c-7.9,1.5-17.3,11.2-19.7,21.1c-1.2,5-1.9,14.4-2.3,22.4
		c0,6.4,18.8,11.8,44.7,13.6C80.4,164.5,84.1,128.4,85.2,119.3z"/>
	<path class="st0" d="M123.8,114C123.8,114,123.8,114,123.8,114l0-0.1c0,0,0,0,0,0c-0.2-3.5-0.4-6.9-0.4-9.8c3.7-6.7,6-15.9,6-15.9
		c9.7-4.1,7.1-15.8,6.9-17.6c-0.2-1.8-4-0.7-4-0.7s1.2-6.1-3.1-18.4C125,39,108,40.5,108,40.5S91,39,86.8,51.4
		c-4.3,12.4-3.1,18.4-3.1,18.4s-3.8-1.2-4,0.7c-0.2,1.8-2.8,13.5,6.9,17.6c0,0,2.3,9.2,6,15.9c-0.1,2.9-0.2,6.3-0.4,9.8l0,0
		c0,0,0,0.1,0,0.1c-1.5,0.9-3.6,2.2-5.9,3.6c2.2,4.3,9.3,15.9,21.7,15.9c12.4,0,19.5-11.7,21.7-15.9
		C127.4,116.2,125.4,114.9,123.8,114z"/>
</g>
</svg>
