<?xml version="1.0" encoding="utf-8"?>
<!-- Generator: Adobe Illustrator 24.3.0, SVG Export Plug-In . SVG Version: 6.00 Build 0)  -->
<svg version="1.1" id="Layer_1" xmlns="http://www.w3.org/2000/svg" xmlns:xlink="http://www.w3.org/1999/xlink" x="0px" y="0px"
	 viewBox="0 0 20 10" style="enable-background:new 0 0 20 10;" xml:space="preserve">
<style type="text/css">
	.st0{clip-path:url(#SVGID_2_);fill:#BCBEC0;}
	.st1{clip-path:url(#SVGID_4_);fill:#3F89C9;}
	.st2{clip-path:url(#SVGID_6_);fill:#3F89C9;}
	.st3{clip-path:url(#SVGID_8_);fill:#3F89C9;}
	.st4{clip-path:url(#SVGID_10_);fill:#BCBEC0;}
	.st5{clip-path:url(#SVGID_12_);fill:#BCBEC0;}
</style>
<g>
	<defs>
		<rect id="SVGID_9_" x="0.6" y="0.2" width="18.8" height="9.6"/>
	</defs>
	<clipPath id="SVGID_2_">
		<use xlink:href="#SVGID_9_"  style="overflow:visible;"/>
	</clipPath>
	<path class="st0" d="M6.5,5c0-1,0.4-1.9,1-2.6C8.2,1.8,9,1.4,10,1.4c1,0,1.8,0.4,2.5,1.1c0.6,0.7,1,1.6,1,2.6s-0.4,1.9-1,2.6
		C11.8,8.2,11,8.6,10,8.6c-1,0-1.8-0.4-2.5-1.1S6.5,6,6.5,5 M16.6,2.2c-1.9-1.3-4.3-2-6.6-2c-2.3,0-4.7,0.7-6.6,2
		C2.3,2.9,1.4,3.9,0.6,5c0.8,1.1,1.7,2.1,2.8,2.8c1.9,1.3,4.3,2,6.6,2c2.3,0,4.7-0.7,6.6-2c1.1-0.7,2-1.7,2.8-2.8
		C18.6,3.9,17.7,2.9,16.6,2.2"/>
	<path class="st0" d="M11.9,5c0-0.5-0.2-1-0.6-1.4C11,3.3,10.5,3,10,3S9,3.3,8.7,3.6C8.3,4,8.1,4.5,8.1,5s0.2,1,0.6,1.4
		C9,6.7,9.5,7,10,7s1-0.2,1.3-0.6C11.7,6,11.9,5.5,11.9,5"/>
</g>
</svg>
