<?xml version="1.0" encoding="utf-8"?>
<!-- Generator: Adobe Illustrator 24.1.2, SVG Export Plug-In . SVG Version: 6.00 Build 0)  -->
<svg version="1.1" id="Layer_1" xmlns="http://www.w3.org/2000/svg" xmlns:xlink="http://www.w3.org/1999/xlink" x="0px" y="0px"
	 viewBox="0 0 13 13" style="enable-background:new 0 0 13 13;" xml:space="preserve">
<style type="text/css">
	.st0{clip-path:url(#SVGID_2_);fill:#FFC628;}
	.st1{clip-path:url(#SVGID_4_);fill:none;stroke:#FFC628;stroke-width:0.361;stroke-miterlimit:10;}
	.st2{clip-path:url(#SVGID_6_);fill:#FFC628;}
	.st3{clip-path:url(#SVGID_8_);fill:none;stroke:#FFC628;stroke-width:0.361;stroke-miterlimit:10;}
</style>
<g>
	<g>
		<g>
			<defs>
				<rect id="SVGID_1_" x="0.4" y="0.2" width="12.2" height="12.6"/>
			</defs>
			<clipPath id="SVGID_2_">
				<use xlink:href="#SVGID_1_"  style="overflow:visible;"/>
			</clipPath>
			<path class="st0" d="M1.1,12.5c-0.1,0-0.1,0-0.3-0.1s-0.1-0.6,0-0.7L6,6.5L0.8,1.3c-0.1-0.1-0.1-0.6,0-0.7s0.6-0.1,0.7,0l5.6,5.6
				c0.1,0.1,0.1,0.6,0,0.7l-5.6,5.6C1.3,12.5,1.2,12.5,1.1,12.5"/>
		</g>
	</g>
	<g>
		<g>
			<defs>
				<rect id="SVGID_3_" x="0.4" y="0.2" width="12.2" height="12.6"/>
			</defs>
			<clipPath id="SVGID_4_">
				<use xlink:href="#SVGID_3_"  style="overflow:visible;"/>
			</clipPath>
			<path class="st1" d="M1.1,12.5c-0.1,0-0.1,0-0.3-0.1s-0.1-0.6,0-0.7L6,6.5L0.8,1.3c-0.1-0.1-0.1-0.6,0-0.7s0.6-0.1,0.7,0l5.6,5.6
				c0.1,0.1,0.1,0.6,0,0.7l-5.6,5.6C1.3,12.5,1.2,12.5,1.1,12.5z"/>
		</g>
	</g>
	<g>
		<g>
			<defs>
				<rect id="SVGID_5_" x="0.4" y="0.2" width="12.2" height="12.6"/>
			</defs>
			<clipPath id="SVGID_6_">
				<use xlink:href="#SVGID_5_"  style="overflow:visible;"/>
			</clipPath>
			<path class="st2" d="M6.2,12.5c-0.1,0-0.3,0-0.3-0.1c-0.1-0.1-0.1-0.6,0-0.7l5.2-5.2L6,1.3C5.8,1.2,5.8,0.8,6,0.6s0.6-0.1,0.7,0
				l5.6,5.6c0.1,0.1,0.1,0.6,0,0.7l-5.6,5.6C6.5,12.5,6.4,12.5,6.2,12.5"/>
		</g>
	</g>
	<g>
		<g>
			<defs>
				<rect id="SVGID_7_" x="0.4" y="0.2" width="12.2" height="12.6"/>
			</defs>
			<clipPath id="SVGID_8_">
				<use xlink:href="#SVGID_7_"  style="overflow:visible;"/>
			</clipPath>
			<path class="st3" d="M6.2,12.5c-0.1,0-0.3,0-0.3-0.1c-0.1-0.1-0.1-0.6,0-0.7l5.2-5.2L6,1.3C5.8,1.2,5.8,0.8,6,0.6s0.6-0.1,0.7,0
				l5.6,5.6c0.1,0.1,0.1,0.6,0,0.7l-5.6,5.6C6.5,12.5,6.4,12.5,6.2,12.5z"/>
		</g>
	</g>
</g>
</svg>
