<?xml version="1.0" encoding="utf-8"?>
<!-- Generator: Adobe Illustrator 24.1.2, SVG Export Plug-In . SVG Version: 6.00 Build 0)  -->
<svg version="1.1" id="Layer_1" xmlns="http://www.w3.org/2000/svg" xmlns:xlink="http://www.w3.org/1999/xlink" x="0px" y="0px"
	 viewBox="0 0 15 15" style="enable-background:new 0 0 15 15;" xml:space="preserve">
<style type="text/css">
	.st0{fill:#3F89C9;}
</style>
<path class="st0" d="M14.7,4.4c0,0-0.1-1.1-0.6-1.5c-0.6-0.6-1.2-0.6-1.5-0.6c-2.1-0.2-5.2-0.2-5.2-0.2l0,0c0,0-3.1,0-5.2,0.2
	c-0.3,0-0.9,0-1.5,0.7C0.4,3.4,0.3,4.4,0.3,4.4S0.1,5.7,0.1,6.9v0.2v1c0,1.2,0.2,2.5,0.2,2.5s0.1,1.1,0.6,1.5
	c0.6,0.6,1.3,0.6,1.6,0.7c1.2,0.1,5,0.2,5,0.2s3.1,0,5.2-0.2c0.3,0,0.9,0,1.5-0.6c0.4-0.5,0.6-1.5,0.6-1.5s0.1-1.2,0.1-2.5v-1V6.9
	C14.9,5.7,14.7,4.4,14.7,4.4z M10,7.3L6,9.5V6.2v-1l1.8,1L10,7.3z"/>
</svg>
