<?xml version="1.0" encoding="utf-8"?>
<!-- Generator: Adobe Illustrator 24.1.2, SVG Export Plug-In . SVG Version: 6.00 Build 0)  -->
<svg version="1.1" id="Layer_1" xmlns="http://www.w3.org/2000/svg" xmlns:xlink="http://www.w3.org/1999/xlink" x="0px" y="0px"
	 viewBox="0 0 15 15" style="enable-background:new 0 0 15 15;" xml:space="preserve">
<style type="text/css">
	.st0{fill:#BCBEC0;}
	.st1{fill:#FFFFFF;}
	.st2{clip-path:url(#SVGID_2_);fill:#FFC628;}
	.st3{clip-path:url(#SVGID_2_);fill:none;stroke:#FFC628;stroke-width:0.361;stroke-miterlimit:10;}
	.st4{clip-path:url(#SVGID_4_);fill:#FFC628;}
	.st5{clip-path:url(#SVGID_4_);fill:none;stroke:#FFC628;stroke-width:0.506;stroke-miterlimit:10;}
	.st6{clip-path:url(#SVGID_6_);fill:#3F89C9;}
</style>
<path class="st0" d="M14.74,4.43c0,0-0.14-1.06-0.59-1.53c-0.56-0.61-1.19-0.62-1.48-0.65C10.6,2.09,7.5,2.09,7.5,2.09H7.5
	c0,0-3.1,0-5.17,0.16C2.04,2.28,1.41,2.28,0.85,2.9C0.41,3.36,0.26,4.43,0.26,4.43S0.12,5.67,0.12,6.92v0.15v1.02
	c0,1.25,0.15,2.49,0.15,2.49s0.14,1.06,0.59,1.53c0.56,0.61,1.3,0.59,1.63,0.66c1.18,0.12,5.02,0.16,5.02,0.16s3.1-0.01,5.17-0.16
	c0.29-0.04,0.92-0.04,1.48-0.65c0.44-0.47,0.59-1.53,0.59-1.53s0.15-1.25,0.15-2.49V7.13V6.92C14.88,5.67,14.74,4.43,14.74,4.43z
	 M9.96,7.35L5.98,9.5l0-3.32V5.18l1.8,0.98L9.96,7.35z"/>
</svg>
