<?xml version="1.0" encoding="utf-8"?>
<!-- Generator: Adobe Illustrator 25.0.0, SVG Export Plug-In . SVG Version: 6.00 Build 0)  -->
<svg version="1.1" id="Layer_1" xmlns="http://www.w3.org/2000/svg" xmlns:xlink="http://www.w3.org/1999/xlink" x="0px" y="0px"
	 viewBox="0 0 10 10" style="enable-background:new 0 0 10 10;" xml:space="preserve">
<style type="text/css">
	.st0{fill:#3F89C9;}
	.st1{fill:none;stroke:#3F89C9;stroke-width:0.361;stroke-miterlimit:10;}
</style>
<g>
	<path class="st0" d="M9.6,9c0,0.1,0,0.2-0.1,0.3C9.4,9.4,9.1,9.4,9,9.2L5.1,5.3L1.2,9.2C1,9.4,0.8,9.4,0.7,9.2
		c-0.1-0.1-0.1-0.4,0-0.5l4.2-4.2c0.1-0.1,0.4-0.1,0.5,0l4.1,4.2C9.6,8.8,9.6,8.9,9.6,9"/>
	<path class="st1" d="M9.6,9c0,0.1,0,0.2-0.1,0.3C9.4,9.4,9.1,9.4,9,9.2L5.1,5.3L1.2,9.2C1,9.4,0.8,9.4,0.7,9.2
		c-0.1-0.1-0.1-0.4,0-0.5l4.2-4.2c0.1-0.1,0.4-0.1,0.5,0l4.1,4.2C9.6,8.8,9.6,8.9,9.6,9z"/>
	<path class="st0" d="M9.4,5.2c0,0.1,0,0.2-0.1,0.3C9.2,5.6,9,5.6,8.8,5.4L4.9,1.5L1,5.4c-0.1,0.1-0.4,0.1-0.5,0S0.4,5,0.5,4.9
		l4.2-4.2c0.1-0.1,0.4-0.1,0.5,0l4.1,4.2C9.4,5,9.4,5.1,9.4,5.2"/>
	<path class="st1" d="M9.4,5.2c0,0.1,0,0.2-0.1,0.3C9.2,5.6,9,5.6,8.8,5.4L4.9,1.5L1,5.4c-0.1,0.1-0.4,0.1-0.5,0S0.4,5,0.5,4.9
		l4.2-4.2c0.1-0.1,0.4-0.1,0.5,0l4.1,4.2C9.4,5,9.4,5.1,9.4,5.2z"/>
</g>
</svg>
