<?xml version="1.0" encoding="utf-8"?>
<!-- Generator: Adobe Illustrator 25.0.0, SVG Export Plug-In . SVG Version: 6.00 Build 0)  -->
<svg version="1.1" id="Layer_1" xmlns="http://www.w3.org/2000/svg" xmlns:xlink="http://www.w3.org/1999/xlink" x="0px" y="0px"
	 viewBox="0 0 10 10" style="enable-background:new 0 0 10 10;" xml:space="preserve">
<style type="text/css">
	.st0{fill:#3F89C9;}
	.st1{fill:none;stroke:#3F89C9;stroke-width:0.361;stroke-miterlimit:10;}
</style>
<g>
	<path class="st0" d="M9,0.4c0.1,0,0.2,0,0.3,0.1C9.4,0.6,9.4,0.9,9.2,1L5.3,4.9l3.9,3.9c0.2,0.2,0.2,0.4,0,0.5
		c-0.1,0.1-0.4,0.1-0.5,0L4.5,5.1C4.4,5,4.4,4.7,4.5,4.6l4.2-4.1C8.8,0.4,8.9,0.4,9,0.4"/>
	<path class="st1" d="M9,0.4c0.1,0,0.2,0,0.3,0.1C9.4,0.6,9.4,0.9,9.2,1L5.3,4.9l3.9,3.9c0.2,0.2,0.2,0.4,0,0.5
		c-0.1,0.1-0.4,0.1-0.5,0L4.5,5.1C4.4,5,4.4,4.7,4.5,4.6l4.2-4.1C8.8,0.4,8.9,0.4,9,0.4z"/>
	<path class="st0" d="M5.2,0.6c0.1,0,0.2,0,0.3,0.1C5.6,0.8,5.6,1,5.4,1.2L1.5,5.1L5.4,9c0.1,0.1,0.1,0.4,0,0.5
		C5.3,9.6,5,9.6,4.9,9.5L0.7,5.3c-0.1-0.1-0.1-0.4,0-0.5l4.2-4.1C5,0.6,5.1,0.6,5.2,0.6"/>
	<path class="st1" d="M5.2,0.6c0.1,0,0.2,0,0.3,0.1C5.6,0.8,5.6,1,5.4,1.2L1.5,5.1L5.4,9c0.1,0.1,0.1,0.4,0,0.5
		C5.3,9.6,5,9.6,4.9,9.5L0.7,5.3c-0.1-0.1-0.1-0.4,0-0.5l4.2-4.1C5,0.6,5.1,0.6,5.2,0.6z"/>
</g>
</svg>
