<?xml version="1.0" encoding="utf-8"?>
<!-- Generator: Adobe Illustrator 25.0.0, SVG Export Plug-In . SVG Version: 6.00 Build 0)  -->
<svg version="1.1" id="Layer_1" xmlns="http://www.w3.org/2000/svg" xmlns:xlink="http://www.w3.org/1999/xlink" x="0px" y="0px"
	 viewBox="0 0 10 10" style="enable-background:new 0 0 10 10;" xml:space="preserve">
<style type="text/css">
	.st0{fill:#3F89C9;}
	.st1{fill:none;stroke:#3F89C9;stroke-width:0.361;stroke-miterlimit:10;}
</style>
<g>
	<path class="st0" d="M0.4,1c0-0.1,0-0.2,0.1-0.3S0.9,0.6,1,0.8l3.9,3.9l3.9-3.9c0.2-0.2,0.4-0.2,0.5,0c0.1,0.1,0.1,0.4,0,0.5
		L5.1,5.5C5,5.6,4.7,5.6,4.6,5.5L0.5,1.3C0.4,1.2,0.4,1.1,0.4,1"/>
	<path class="st1" d="M0.4,1c0-0.1,0-0.2,0.1-0.3S0.9,0.6,1,0.8l3.9,3.9l3.9-3.9c0.2-0.2,0.4-0.2,0.5,0c0.1,0.1,0.1,0.4,0,0.5
		L5.1,5.5C5,5.6,4.7,5.6,4.6,5.5L0.5,1.3C0.4,1.2,0.4,1.1,0.4,1z"/>
	<path class="st0" d="M0.6,4.8c0-0.1,0-0.2,0.1-0.3C0.8,4.4,1,4.4,1.2,4.6l3.9,3.9L9,4.6c0.1-0.1,0.4-0.1,0.5,0s0.1,0.4,0,0.5
		L5.3,9.3c-0.1,0.1-0.4,0.1-0.5,0L0.7,5.1C0.6,5,0.6,4.9,0.6,4.8"/>
	<path class="st1" d="M0.6,4.8c0-0.1,0-0.2,0.1-0.3C0.8,4.4,1,4.4,1.2,4.6l3.9,3.9L9,4.6c0.1-0.1,0.4-0.1,0.5,0s0.1,0.4,0,0.5
		L5.3,9.3c-0.1,0.1-0.4,0.1-0.5,0L0.7,5.1C0.6,5,0.6,4.9,0.6,4.8z"/>
</g>
</svg>
