<?xml version="1.0" encoding="utf-8"?>
<!-- Generator: Adobe Illustrator 25.0.0, SVG Export Plug-In . SVG Version: 6.00 Build 0)  -->
<svg version="1.1" id="Layer_1" xmlns="http://www.w3.org/2000/svg" xmlns:xlink="http://www.w3.org/1999/xlink" x="0px" y="0px"
	 viewBox="0 0 10 10" style="enable-background:new 0 0 10 10;" xml:space="preserve">
<style type="text/css">
	.st0{fill:#3F89C9;}
	.st1{fill:none;stroke:#3F89C9;stroke-width:0.361;stroke-miterlimit:10;}
</style>
<g>
	<path class="st0" d="M1,9.6c-0.1,0-0.2,0-0.3-0.1C0.6,9.4,0.6,9.1,0.8,9l3.9-3.9L0.8,1.2C0.6,1,0.6,0.8,0.8,0.7
		c0.1-0.1,0.4-0.1,0.5,0l4.2,4.2c0.1,0.1,0.1,0.4,0,0.5L1.3,9.5C1.2,9.6,1.1,9.6,1,9.6"/>
	<path class="st1" d="M1,9.6c-0.1,0-0.2,0-0.3-0.1C0.6,9.4,0.6,9.1,0.8,9l3.9-3.9L0.8,1.2C0.6,1,0.6,0.8,0.8,0.7
		c0.1-0.1,0.4-0.1,0.5,0l4.2,4.2c0.1,0.1,0.1,0.4,0,0.5L1.3,9.5C1.2,9.6,1.1,9.6,1,9.6z"/>
	<path class="st0" d="M4.8,9.4c-0.1,0-0.2,0-0.3-0.1C4.4,9.2,4.4,9,4.6,8.8l3.9-3.9L4.6,1c-0.1-0.1-0.1-0.4,0-0.5s0.4-0.1,0.5,0
		l4.2,4.2c0.1,0.1,0.1,0.4,0,0.5L5.1,9.3C5,9.4,4.9,9.4,4.8,9.4"/>
	<path class="st1" d="M4.8,9.4c-0.1,0-0.2,0-0.3-0.1C4.4,9.2,4.4,9,4.6,8.8l3.9-3.9L4.6,1c-0.1-0.1-0.1-0.4,0-0.5s0.4-0.1,0.5,0
		l4.2,4.2c0.1,0.1,0.1,0.4,0,0.5L5.1,9.3C5,9.4,4.9,9.4,4.8,9.4z"/>
</g>
</svg>
