<?xml version="1.0" encoding="utf-8"?>
<!-- Generator: Adobe Illustrator 25.0.0, SVG Export Plug-In . SVG Version: 6.00 Build 0)  -->
<svg version="1.1" id="Layer_1" xmlns="http://www.w3.org/2000/svg" xmlns:xlink="http://www.w3.org/1999/xlink" x="0px" y="0px"
	 viewBox="0 0 10 10" style="enable-background:new 0 0 10 10;" xml:space="preserve">
<style type="text/css">
	.st0{fill:#FFFFFF;}
</style>
<path class="st0" d="M8.7,6.3c0.2-0.2,0.2-0.4,0-0.6s-0.4-0.2-0.6,0L5.3,8.5l0,0V0.4C5.3,0.2,5.1,0,4.9,0S4.5,0.2,4.5,0.5v8l0,0
	L1.7,5.7c-0.1-0.2-0.4-0.2-0.5,0C1,5.9,1,6.1,1.2,6.3c0,0,2.8,2.9,3.5,3.6C4.8,10,5,10,5.1,9.9L8.7,6.3z"/>
</svg>
