<?xml version="1.0" encoding="utf-8"?>
<!-- Generator: Adobe Illustrator 25.0.0, SVG Export Plug-In . SVG Version: 6.00 Build 0)  -->
<svg version="1.1" id="Layer_1" xmlns="http://www.w3.org/2000/svg" xmlns:xlink="http://www.w3.org/1999/xlink" x="0px" y="0px"
	 viewBox="0 0 10 10" style="enable-background:new 0 0 10 10;" xml:space="preserve">
<style type="text/css">
	.st0{fill:#FFFFFF;}
</style>
<path class="st0" d="M3.7,9c0.2,0.2,0.4,0.2,0.6,0s0.2-0.4,0-0.6L1.5,5.6l0,0h8.1c0.2,0,0.4-0.2,0.4-0.4C10,5,9.8,4.8,9.5,4.8h-8
	l0,0L4.3,2c0.2-0.1,0.2-0.4,0-0.5c-0.2-0.2-0.4-0.2-0.6,0c0,0-2.9,2.8-3.6,3.5C0,5.1,0,5.3,0.1,5.4L3.7,9z"/>
</svg>
