<?xml version="1.0" encoding="utf-8"?>
<!-- Generator: Adobe Illustrator 25.0.0, SVG Export Plug-In . SVG Version: 6.00 Build 0)  -->
<svg version="1.1" id="Layer_1" xmlns="http://www.w3.org/2000/svg" xmlns:xlink="http://www.w3.org/1999/xlink" x="0px" y="0px"
	 viewBox="0 0 10 10" style="enable-background:new 0 0 10 10;" xml:space="preserve">
<style type="text/css">
	.st0{fill:#FFFFFF;}
</style>
<path class="st0" d="M1.2,3.7C1,3.9,1,4.1,1.2,4.3s0.4,0.2,0.6,0l2.8-2.8l0,0v8.1C4.6,9.8,4.8,10,5,10s0.4-0.2,0.4-0.5v-8l0,0
	l2.8,2.8c0.1,0.2,0.4,0.2,0.5,0c0.2-0.2,0.2-0.4,0-0.6c0,0-2.8-2.9-3.5-3.6C5.1,0,4.9,0,4.8,0.1L1.2,3.7z"/>
</svg>
