<?xml version="1.0" encoding="utf-8"?>
<!-- Generator: Adobe Illustrator 25.0.0, SVG Export Plug-In . SVG Version: 6.00 Build 0)  -->
<svg version="1.1" id="Layer_1" xmlns="http://www.w3.org/2000/svg" xmlns:xlink="http://www.w3.org/1999/xlink" x="0px" y="0px"
	 viewBox="0 0 10 10" style="enable-background:new 0 0 10 10;" xml:space="preserve">
<style type="text/css">
	.st0{fill:#FFFFFF;}
</style>
<path class="st0" d="M9.9,5.4C10,5.3,10,5.1,9.9,5C9.2,4.3,6.3,1.5,6.3,1.5c-0.2-0.2-0.4-0.2-0.6,0C5.5,1.6,5.5,1.9,5.7,2l2.8,2.8
	l0,0h-8C0.2,4.8,0,5,0,5.2s0.2,0.4,0.4,0.4h8.1l0,0L5.7,8.4C5.5,8.6,5.5,8.8,5.7,9s0.4,0.2,0.6,0L9.9,5.4z"/>
</svg>
