<?xml version="1.0" encoding="utf-8"?>
<!-- Generator: Adobe Illustrator 25.0.0, SVG Export Plug-In . SVG Version: 6.00 Build 0)  -->
<svg version="1.1" id="Layer_1" xmlns="http://www.w3.org/2000/svg" xmlns:xlink="http://www.w3.org/1999/xlink" x="0px" y="0px"
	 viewBox="0 0 10 10" style="enable-background:new 0 0 10 10;" xml:space="preserve">
<style type="text/css">
	.st0{clip-path:url(#SVGID_2_);fill:#FFC628;}
	.st1{clip-path:url(#SVGID_4_);fill:none;stroke:#FFC628;stroke-width:0.361;stroke-miterlimit:10;}
	.st2{clip-path:url(#SVGID_6_);fill:#FFC628;}
	.st3{clip-path:url(#SVGID_8_);fill:none;stroke:#FFC628;stroke-width:0.361;stroke-miterlimit:10;}
</style>
<g>
	<g>
		<defs>
			<rect id="SVGID_1_" x="0.6" y="0.5" width="8.7" height="9"/>
		</defs>
		<clipPath id="SVGID_2_">
			<use xlink:href="#SVGID_1_"  style="overflow:visible;"/>
		</clipPath>
		<path class="st0" d="M1.1,9.3C1,9.3,1,9.3,0.9,9.2s-0.1-0.4,0-0.5L4.6,5L0.9,1.3c-0.1-0.1-0.1-0.4,0-0.5s0.4-0.1,0.5,0l4,4
			c0.1,0.1,0.1,0.4,0,0.5l-4,4C1.3,9.3,1.2,9.3,1.1,9.3"/>
	</g>
</g>
<g>
	<g>
		<defs>
			<rect id="SVGID_3_" x="0.6" y="0.5" width="8.7" height="9"/>
		</defs>
		<clipPath id="SVGID_4_">
			<use xlink:href="#SVGID_3_"  style="overflow:visible;"/>
		</clipPath>
		<path class="st1" d="M1.1,9.3C1,9.3,1,9.3,0.9,9.2s-0.1-0.4,0-0.5L4.6,5L0.9,1.3c-0.1-0.1-0.1-0.4,0-0.5s0.4-0.1,0.5,0l4,4
			c0.1,0.1,0.1,0.4,0,0.5l-4,4C1.3,9.3,1.2,9.3,1.1,9.3z"/>
	</g>
</g>
<g>
	<g>
		<defs>
			<rect id="SVGID_5_" x="4.6" y="0.5" width="8.7" height="9"/>
		</defs>
		<clipPath id="SVGID_6_">
			<use xlink:href="#SVGID_5_"  style="overflow:visible;"/>
		</clipPath>
		<path class="st2" d="M5.1,9.3C5,9.3,5,9.3,4.9,9.2c-0.1-0.1-0.1-0.4,0-0.5L8.6,5L4.9,1.3c-0.1-0.1-0.1-0.4,0-0.5
			c0.1-0.1,0.4-0.1,0.5,0l4,4c0.1,0.1,0.1,0.4,0,0.5l-4,4C5.3,9.3,5.2,9.3,5.1,9.3"/>
	</g>
</g>
<g>
	<g>
		<defs>
			<rect id="SVGID_7_" x="4.6" y="0.5" width="8.7" height="9"/>
		</defs>
		<clipPath id="SVGID_8_">
			<use xlink:href="#SVGID_7_"  style="overflow:visible;"/>
		</clipPath>
		<path class="st3" d="M5.1,9.3C5,9.3,5,9.3,4.9,9.2c-0.1-0.1-0.1-0.4,0-0.5L8.6,5L4.9,1.3c-0.1-0.1-0.1-0.4,0-0.5
			c0.1-0.1,0.4-0.1,0.5,0l4,4c0.1,0.1,0.1,0.4,0,0.5l-4,4C5.3,9.3,5.2,9.3,5.1,9.3z"/>
	</g>
</g>
</svg>
