<?xml version="1.0" encoding="utf-8"?>
<!-- Generator: Adobe Illustrator 25.0.0, SVG Export Plug-In . SVG Version: 6.00 Build 0)  -->
<svg version="1.1" id="Layer_1" xmlns="http://www.w3.org/2000/svg" xmlns:xlink="http://www.w3.org/1999/xlink" x="0px" y="0px"
	 viewBox="0 0 15 15" style="enable-background:new 0 0 15 15;" xml:space="preserve">
<style type="text/css">
	.st0{clip-path:url(#SVGID_2_);fill:#FFC628;}
	.st1{clip-path:url(#SVGID_4_);fill:none;stroke:#FFC628;stroke-width:0.506;stroke-miterlimit:10;}
</style>
<g>
	<g>
		<defs>
			<rect id="SVGID_1_" x="3.3" y="0" width="8.4" height="15"/>
		</defs>
		<clipPath id="SVGID_2_">
			<use xlink:href="#SVGID_1_"  style="overflow:visible;"/>
		</clipPath>
		<path class="st0" d="M4.2,14.7c-0.2,0-0.3-0.1-0.4-0.2c-0.2-0.2-0.2-0.6,0-0.8L10,7.5L3.8,1.3C3.5,1,3.5,0.7,3.8,0.4
			c0.2-0.2,0.6-0.2,0.8,0l6.6,6.6c0.2,0.2,0.2,0.6,0,0.8l-6.6,6.7C4.5,14.7,4.3,14.7,4.2,14.7"/>
	</g>
	<g>
		<defs>
			<rect id="SVGID_3_" x="3.3" y="0" width="8.4" height="15"/>
		</defs>
		<clipPath id="SVGID_4_">
			<use xlink:href="#SVGID_3_"  style="overflow:visible;"/>
		</clipPath>
		<path class="st1" d="M4.2,14.7c-0.2,0-0.3-0.1-0.4-0.2c-0.2-0.2-0.2-0.6,0-0.8L10,7.5L3.8,1.3C3.5,1,3.5,0.7,3.8,0.4
			c0.2-0.2,0.6-0.2,0.8,0l6.6,6.6c0.2,0.2,0.2,0.6,0,0.8l-6.6,6.7C4.5,14.7,4.3,14.7,4.2,14.7z"/>
	</g>
</g>
</svg>
