<?xml version="1.0" encoding="utf-8"?>
<!-- Generator: Adobe Illustrator 25.0.0, SVG Export Plug-In . SVG Version: 6.00 Build 0)  -->
<svg version="1.1" id="Layer_1" xmlns="http://www.w3.org/2000/svg" xmlns:xlink="http://www.w3.org/1999/xlink" x="0px" y="0px"
	 viewBox="0 0 15 15" style="enable-background:new 0 0 15 15;" xml:space="preserve">
<style type="text/css">
	.st0{clip-path:url(#SVGID_2_);fill:#FFC628;}
	.st1{clip-path:url(#SVGID_4_);fill:none;stroke:#FFC628;stroke-width:0.506;stroke-miterlimit:10;}
</style>
<g>
	<g>
		<defs>
			<rect id="SVGID_1_" x="3.3" y="0" width="8.4" height="15"/>
		</defs>
		<clipPath id="SVGID_2_">
			<use xlink:href="#SVGID_1_"  style="overflow:visible;"/>
		</clipPath>
		<path class="st0" d="M10.8,0.3c0.2,0,0.3,0.1,0.4,0.2c0.2,0.2,0.2,0.6,0,0.8L5,7.5l6.2,6.2c0.2,0.2,0.2,0.6,0,0.8
			c-0.2,0.2-0.6,0.2-0.8,0L3.8,7.9c-0.2-0.2-0.2-0.6,0-0.8l6.6-6.7C10.5,0.3,10.7,0.3,10.8,0.3"/>
	</g>
	<g>
		<defs>
			<rect id="SVGID_3_" x="3.3" y="0" width="8.4" height="15"/>
		</defs>
		<clipPath id="SVGID_4_">
			<use xlink:href="#SVGID_3_"  style="overflow:visible;"/>
		</clipPath>
		<path class="st1" d="M10.8,0.3c0.2,0,0.3,0.1,0.4,0.2c0.2,0.2,0.2,0.6,0,0.8L5,7.5l6.2,6.2c0.2,0.2,0.2,0.6,0,0.8
			c-0.2,0.2-0.6,0.2-0.8,0L3.8,7.9c-0.2-0.2-0.2-0.6,0-0.8l6.6-6.7C10.5,0.3,10.7,0.3,10.8,0.3z"/>
	</g>
</g>
</svg>
