<?xml version="1.0" encoding="utf-8"?>
<!-- Generator: Adobe Illustrator 25.0.0, SVG Export Plug-In . SVG Version: 6.00 Build 0)  -->
<svg version="1.1" id="Layer_1" xmlns="http://www.w3.org/2000/svg" xmlns:xlink="http://www.w3.org/1999/xlink" x="0px" y="0px"
	 viewBox="0 0 10 10" style="enable-background:new 0 0 10 10;" xml:space="preserve">
<style type="text/css">
	.st0{clip-path:url(#SVGID_2_);fill:#FFC628;}
	.st1{clip-path:url(#SVGID_4_);fill:none;stroke:#FFC628;stroke-width:0.361;stroke-miterlimit:10;}
	.st2{clip-path:url(#SVGID_6_);fill:#FFC628;}
	.st3{clip-path:url(#SVGID_8_);fill:none;stroke:#FFC628;stroke-width:0.361;stroke-miterlimit:10;}
</style>
<g>
	<g>
		<defs>
			<rect id="SVGID_1_" x="0.5" y="0.5" width="9" height="8.7"/>
		</defs>
		<clipPath id="SVGID_2_">
			<use xlink:href="#SVGID_1_"  style="overflow:visible;"/>
		</clipPath>
		<path class="st0" d="M0.7,1c0-0.1,0-0.1,0.1-0.2s0.4-0.1,0.5,0L5,4.5l3.7-3.7c0.1-0.1,0.4-0.1,0.5,0c0.1,0.1,0.1,0.4,0,0.5l-4,4
			c-0.1,0.1-0.4,0.1-0.5,0l-4-4C0.7,1.2,0.7,1.1,0.7,1"/>
	</g>
</g>
<g>
	<g>
		<defs>
			<rect id="SVGID_3_" x="0.5" y="0.5" width="9" height="8.7"/>
		</defs>
		<clipPath id="SVGID_4_">
			<use xlink:href="#SVGID_3_"  style="overflow:visible;"/>
		</clipPath>
		<path class="st1" d="M0.7,1c0-0.1,0-0.1,0.1-0.2s0.4-0.1,0.5,0L5,4.5l3.7-3.7c0.1-0.1,0.4-0.1,0.5,0c0.1,0.1,0.1,0.4,0,0.5l-4,4
			c-0.1,0.1-0.4,0.1-0.5,0l-4-4C0.7,1.2,0.7,1.1,0.7,1z"/>
	</g>
</g>
<g>
	<g>
		<defs>
			<rect id="SVGID_5_" x="0.5" y="4.5" width="9" height="8.7"/>
		</defs>
		<clipPath id="SVGID_6_">
			<use xlink:href="#SVGID_5_"  style="overflow:visible;"/>
		</clipPath>
		<path class="st2" d="M0.7,5c0-0.1,0-0.1,0.1-0.2s0.4-0.1,0.5,0L5,8.5l3.7-3.7c0.1-0.1,0.4-0.1,0.5,0c0.1,0.1,0.1,0.4,0,0.5l-4,4
			c-0.1,0.1-0.4,0.1-0.5,0l-4-4C0.7,5.2,0.7,5.1,0.7,5"/>
	</g>
</g>
<g>
	<g>
		<defs>
			<rect id="SVGID_7_" x="0.5" y="4.5" width="9" height="8.7"/>
		</defs>
		<clipPath id="SVGID_8_">
			<use xlink:href="#SVGID_7_"  style="overflow:visible;"/>
		</clipPath>
		<path class="st3" d="M0.7,5c0-0.1,0-0.1,0.1-0.2s0.4-0.1,0.5,0L5,8.5l3.7-3.7c0.1-0.1,0.4-0.1,0.5,0c0.1,0.1,0.1,0.4,0,0.5l-4,4
			c-0.1,0.1-0.4,0.1-0.5,0l-4-4C0.7,5.2,0.7,5.1,0.7,5z"/>
	</g>
</g>
</svg>
