<?xml version="1.0" encoding="utf-8"?>
<!-- Generator: Adobe Illustrator 25.0.0, SVG Export Plug-In . SVG Version: 6.00 Build 0)  -->
<svg version="1.1" id="Layer_1" xmlns="http://www.w3.org/2000/svg" xmlns:xlink="http://www.w3.org/1999/xlink" x="0px" y="0px"
	 viewBox="0 0 10 10" style="enable-background:new 0 0 10 10;" xml:space="preserve">
<style type="text/css">
	.st0{clip-path:url(#SVGID_2_);fill:#FFC628;}
	.st1{clip-path:url(#SVGID_4_);fill:none;stroke:#FFC628;stroke-width:0.361;stroke-miterlimit:10;}
	.st2{clip-path:url(#SVGID_6_);fill:#FFC628;}
	.st3{clip-path:url(#SVGID_8_);fill:none;stroke:#FFC628;stroke-width:0.361;stroke-miterlimit:10;}
</style>
<g>
	<g>
		<defs>
			<rect id="SVGID_1_" x="0.7" y="0.6" width="8.7" height="9"/>
		</defs>
		<clipPath id="SVGID_2_">
			<use xlink:href="#SVGID_1_"  style="overflow:visible;"/>
		</clipPath>
		<path class="st0" d="M8.9,0.8c0.1,0,0.1,0,0.2,0.1c0.1,0.1,0.1,0.4,0,0.5L5.4,5.1l3.7,3.7c0.1,0.1,0.1,0.4,0,0.5
			C9,9.4,8.7,9.4,8.6,9.3l-4-4c-0.1-0.1-0.1-0.4,0-0.5l4-4C8.7,0.8,8.8,0.8,8.9,0.8"/>
	</g>
</g>
<g>
	<g>
		<defs>
			<rect id="SVGID_3_" x="0.7" y="0.6" width="8.7" height="9"/>
		</defs>
		<clipPath id="SVGID_4_">
			<use xlink:href="#SVGID_3_"  style="overflow:visible;"/>
		</clipPath>
		<path class="st1" d="M8.9,0.8c0.1,0,0.1,0,0.2,0.1c0.1,0.1,0.1,0.4,0,0.5L5.4,5.1l3.7,3.7c0.1,0.1,0.1,0.4,0,0.5
			C9,9.4,8.7,9.4,8.6,9.3l-4-4c-0.1-0.1-0.1-0.4,0-0.5l4-4C8.7,0.8,8.8,0.8,8.9,0.8z"/>
	</g>
</g>
<g>
	<g>
		<defs>
			<rect id="SVGID_5_" x="-3.2" y="0.6" width="8.7" height="9"/>
		</defs>
		<clipPath id="SVGID_6_">
			<use xlink:href="#SVGID_5_"  style="overflow:visible;"/>
		</clipPath>
		<path class="st2" d="M5,0.8c0.1,0,0.1,0,0.2,0.1s0.1,0.4,0,0.5L1.5,5.1l3.7,3.7c0.1,0.1,0.1,0.4,0,0.5c-0.1,0.1-0.4,0.1-0.5,0
			l-4-4c-0.1-0.1-0.1-0.4,0-0.5l4-4C4.8,0.8,4.9,0.8,5,0.8"/>
	</g>
</g>
<g>
	<g>
		<defs>
			<rect id="SVGID_7_" x="-3.2" y="0.6" width="8.7" height="9"/>
		</defs>
		<clipPath id="SVGID_8_">
			<use xlink:href="#SVGID_7_"  style="overflow:visible;"/>
		</clipPath>
		<path class="st3" d="M5,0.8c0.1,0,0.1,0,0.2,0.1s0.1,0.4,0,0.5L1.5,5.1l3.7,3.7c0.1,0.1,0.1,0.4,0,0.5c-0.1,0.1-0.4,0.1-0.5,0
			l-4-4c-0.1-0.1-0.1-0.4,0-0.5l4-4C4.8,0.8,4.9,0.8,5,0.8z"/>
	</g>
</g>
</svg>
